<svg width="20" height="20" viewBox="0 0 20 20" fill="none" xmlns="http://www.w3.org/2000/svg">
<path d="M10 18.3333C14.6024 18.3333 18.3333 14.6024 18.3333 9.99999C18.3333 5.39762 14.6024 1.66666 10 1.66666C5.39763 1.66666 1.66667 5.39762 1.66667 9.99999C1.66667 14.6024 5.39763 18.3333 10 18.3333Z" stroke="#344054" stroke-width="1.66667" stroke-linecap="round" stroke-linejoin="round"/>
<path d="M7.91667 7.4711C7.91667 7.07336 7.91667 6.87449 7.99979 6.76347C8.07222 6.66672 8.1831 6.60619 8.30365 6.59758C8.44199 6.5877 8.60928 6.69524 8.94384 6.91031L12.8777 9.4392C13.168 9.62584 13.3132 9.71916 13.3633 9.83782C13.4071 9.94149 13.4071 10.0585 13.3633 10.1622C13.3132 10.2808 13.168 10.3741 12.8777 10.5608L8.94384 13.0897C8.60928 13.3047 8.44199 13.4123 8.30365 13.4024C8.1831 13.3938 8.07222 13.3333 7.99979 13.2365C7.91667 13.1255 7.91667 12.9266 7.91667 12.5289V7.4711Z" stroke="#344054" stroke-width="1.66667" stroke-linecap="round" stroke-linejoin="round"/>
</svg>
